<svg xmlns="http://www.w3.org/2000/svg" width="1000" height="1000" viewBox="0 0 1000 1000" fill="none"><path d="M406.984 70.2669C400.977 70.264 394.881 69.6145 389.187 67.618C384.796 66.0782 380.699 63.7073 377.396 60.4042C374.093 57.1012 371.722 53.0041 370.182 48.6124C368.709 44.4106 367.98 39.9772 367.684 35.545C367.606 34.38 367.562 33.2132 367.543 32.0458L367.533 30.8161L367.523 32.0458C367.503 33.2132 367.46 34.38 367.382 35.545C367.085 39.9772 366.357 44.4106 364.884 48.6124C363.344 53.0041 360.973 57.1012 357.67 60.4042C354.367 63.7073 350.27 66.0782 345.878 67.618C341.677 69.0913 337.243 69.8195 332.811 70.116C331.646 70.194 330.479 70.2374 329.312 70.2572L328.082 70.2669L329.312 70.2767C330.479 70.2964 331.646 70.3399 332.811 70.4178C337.243 70.7144 341.677 71.4426 345.878 72.9158C350.27 74.4557 354.367 76.8266 357.67 80.1296C360.973 83.4327 363.344 87.5297 364.884 91.9214C366.357 96.1233 367.085 100.557 367.382 104.989C367.46 106.154 367.503 107.321 367.523 108.488L367.533 109.718L367.543 108.488C367.562 107.321 367.606 106.154 367.684 104.989C367.98 100.557 368.709 96.1233 370.182 91.9214C371.722 87.5297 374.093 83.4327 377.396 80.1296C380.699 76.8266 384.796 74.4557 389.187 72.9158C394.881 70.9194 400.977 70.2699 406.984 70.2669Z" fill="black"></path><path d="M394.412 259.976H448.957V205.431H394.412V259.976Z" fill="black"></path><path d="M421.681 148.212C404.921 148.212 391.334 161.798 391.334 178.558C391.334 195.319 404.921 208.905 421.681 208.905C438.441 208.905 452.028 195.319 452.028 178.558C452.028 161.798 438.441 148.212 421.681 148.212Z" fill="black"></path><path d="M461.128 124.414C455.121 124.411 449.026 123.762 443.332 121.765C438.94 120.226 434.843 117.855 431.54 114.552C428.237 111.249 425.866 107.152 424.326 102.76C422.853 98.558 422.125 94.1246 421.828 89.6925C421.75 88.5275 421.707 87.3607 421.687 86.1932L421.677 84.9636L421.668 86.1932C421.648 87.3607 421.604 88.5275 421.527 89.6925C421.23 94.1246 420.502 98.558 419.028 102.76C417.489 107.152 415.118 111.249 411.815 114.552C408.512 117.855 404.415 120.226 400.023 121.765C395.821 123.239 391.388 123.967 386.956 124.263C385.79 124.341 384.624 124.385 383.456 124.405L382.227 124.414L383.456 124.424C384.624 124.444 385.79 124.487 386.956 124.565C391.388 124.862 395.821 125.59 400.023 127.063C404.415 128.603 408.512 130.974 411.815 134.277C415.118 137.58 417.489 141.677 419.028 146.069C420.502 150.271 421.23 154.704 421.527 159.136C421.604 160.301 421.648 161.468 421.668 162.636L421.677 163.865L421.687 162.636C421.707 161.468 421.75 160.301 421.828 159.136C422.125 154.704 422.853 150.271 424.326 146.069C425.866 141.677 428.237 137.58 431.54 134.277C434.843 130.974 438.94 128.603 443.332 127.063C449.026 125.067 455.121 124.417 461.128 124.414Z" fill="black"></path><path d="M448.553 368.267H503.097V313.722H448.553V368.267Z" fill="black"></path><path d="M475.821 256.503C459.061 256.503 445.475 270.089 445.475 286.849C445.475 303.61 459.061 317.196 475.821 317.196C492.582 317.196 506.168 303.61 506.168 286.849C506.168 270.089 492.582 256.503 475.821 256.503Z" fill="black"></path><path d="M569.421 449.285C563.414 449.282 557.319 448.632 551.625 446.636C547.233 445.096 543.136 442.725 539.833 439.422C536.53 436.119 534.159 432.022 532.619 427.63C531.146 423.428 530.418 418.995 530.121 414.563C530.043 413.398 530 412.231 529.98 411.063L529.97 409.834L529.961 411.063C529.941 412.231 529.897 413.398 529.82 414.563C529.523 418.995 528.795 423.428 527.321 427.63C525.782 432.022 523.411 436.119 520.108 439.422C516.805 442.725 512.708 445.096 508.316 446.636C504.114 448.109 499.681 448.837 495.248 449.134C494.083 449.212 492.917 449.255 491.749 449.275L490.52 449.285L491.749 449.294C492.917 449.314 494.083 449.357 495.248 449.435C499.681 449.732 504.114 450.46 508.316 451.933C512.708 453.473 516.805 455.844 520.108 459.147C523.411 462.45 525.782 466.547 527.321 470.939C528.795 475.141 529.523 479.574 529.82 484.006C529.897 485.171 529.941 486.338 529.961 487.506L529.97 488.735L529.98 487.506C530 486.338 530.043 485.171 530.121 484.006C530.418 479.574 531.146 475.141 532.619 470.939C534.159 466.547 536.53 462.45 539.833 459.147C543.136 455.844 547.233 453.473 551.625 451.933C557.319 449.937 563.414 449.287 569.421 449.285Z" fill="black"></path><path d="M502.697 422.414H557.242V367.87H502.697V422.414Z" fill="black"></path><path d="M584.114 364.795C567.354 364.795 553.768 378.381 553.768 395.141C553.768 411.902 567.354 425.488 584.114 425.488C600.874 425.488 614.461 411.902 614.461 395.141C614.461 378.381 600.874 364.795 584.114 364.795Z" fill="black"></path><path d="M623.566 340.993C617.559 340.991 611.464 340.341 605.769 338.345C601.378 336.805 597.281 334.434 593.978 331.131C590.675 327.828 588.304 323.731 586.764 319.339C585.291 315.137 584.562 310.704 584.266 306.272C584.188 305.107 584.144 303.94 584.125 302.772L584.115 301.543L584.105 302.772C584.085 303.94 584.042 305.107 583.964 306.272C583.667 310.704 582.939 315.137 581.466 319.339C579.926 323.731 577.555 327.828 574.252 331.131C570.949 334.434 566.852 336.805 562.46 338.345C558.259 339.818 553.825 340.546 549.393 340.843C548.228 340.921 547.061 340.964 545.894 340.984L544.664 340.993L545.894 341.003C547.061 341.023 548.228 341.066 549.393 341.144C553.825 341.441 558.259 342.169 562.46 343.642C566.852 345.182 570.949 347.553 574.252 350.856C577.555 354.159 579.926 358.256 581.466 362.648C582.939 366.85 583.667 371.283 583.964 375.715C584.042 376.88 584.085 378.047 584.105 379.215L584.115 380.444L584.125 379.215C584.144 378.047 584.188 376.88 584.266 375.715C584.562 371.283 585.291 366.85 586.764 362.648C588.304 358.256 590.675 354.159 593.978 350.856C597.281 347.553 601.378 345.182 605.769 343.642C611.464 341.646 617.559 340.996 623.566 340.993Z" fill="black"></path><path d="M610.986 314.122H665.531V259.578H610.986V314.122Z" fill="black"></path><path d="M638.257 202.355C621.497 202.355 607.91 215.942 607.91 232.702C607.91 249.462 621.497 263.049 638.257 263.049C655.017 263.049 668.604 249.462 668.604 232.702C668.604 215.942 655.017 202.355 638.257 202.355Z" fill="black"></path><path d="M677.71 178.558C671.703 178.555 665.608 177.906 659.914 175.909C655.522 174.369 651.425 171.998 648.122 168.695C644.819 165.392 642.448 161.295 640.908 156.903C639.435 152.702 638.707 148.268 638.41 143.836C638.332 142.671 638.289 141.504 638.269 140.337L638.259 139.107L638.25 140.337C638.23 141.504 638.186 142.671 638.109 143.836C637.812 148.268 637.084 152.702 635.61 156.903C634.071 161.295 631.7 165.392 628.397 168.695C625.094 171.998 620.997 174.369 616.605 175.909C612.403 177.382 607.97 178.111 603.538 178.407C602.373 178.485 601.206 178.528 600.038 178.548L598.809 178.558L600.038 178.568C601.206 178.587 602.373 178.631 603.538 178.709C607.97 179.005 612.403 179.734 616.605 181.207C620.997 182.747 625.094 185.118 628.397 188.421C631.7 191.724 634.071 195.821 635.61 200.212C637.084 204.414 637.812 208.848 638.109 213.28C638.186 214.445 638.23 215.612 638.25 216.779L638.259 218.009L638.269 216.779C638.289 215.612 638.332 214.445 638.41 213.28C638.707 208.848 639.435 204.414 640.908 200.212C642.448 195.821 644.819 191.724 648.122 188.421C651.425 185.118 655.522 182.747 659.914 181.207C665.608 179.21 671.703 178.561 677.71 178.558Z" fill="black"></path><path d="M665.133 151.686H719.677V97.1411H665.133V151.686Z" fill="black"></path><path d="M692.409 39.9197C675.649 39.9197 662.062 53.5064 662.062 70.2665C662.062 87.0265 675.649 100.613 692.409 100.613C709.169 100.613 722.756 87.0265 722.756 70.2665C722.756 53.5064 709.169 39.9197 692.409 39.9197Z" fill="black"></path><path d="M247.642 842.652C241.635 842.649 235.54 841.999 229.846 840.003C225.454 838.463 221.357 836.092 218.054 832.789C214.751 829.486 212.38 825.389 210.84 820.997C209.367 816.795 208.638 812.362 208.342 807.93C208.264 806.765 208.221 805.598 208.201 804.431L208.191 803.201L208.181 804.431C208.162 805.598 208.118 806.765 208.04 807.93C207.744 812.362 207.015 816.795 205.542 820.997C204.002 825.389 201.631 829.486 198.328 832.789C195.025 836.092 190.928 838.463 186.537 840.003C182.335 841.476 177.901 842.204 173.469 842.501C172.304 842.579 171.137 842.622 169.97 842.642L168.74 842.652L169.97 842.661C171.137 842.681 172.304 842.725 173.469 842.803C177.901 843.099 182.335 843.827 186.537 845.301C190.928 846.84 195.025 849.211 198.328 852.514C201.631 855.817 204.002 859.915 205.542 864.306C207.015 868.508 207.744 872.941 208.04 877.374C208.118 878.539 208.162 879.705 208.181 880.873L208.191 882.103L208.201 880.873C208.221 879.705 208.264 878.539 208.342 877.374C208.638 872.941 209.367 868.508 210.84 864.306C212.38 859.915 214.751 855.817 218.054 852.514C221.357 849.211 225.454 846.84 229.846 845.301C235.54 843.304 241.635 842.655 247.642 842.652Z" fill="black"></path><path d="M180.922 490.909H235.466V436.365H180.922V490.909Z" fill="black"></path><path d="M262.339 812.305C245.579 812.305 231.992 825.892 231.992 842.652C231.992 859.412 245.579 872.999 262.339 872.999C279.099 872.999 292.686 859.412 292.686 842.652C292.686 825.892 279.099 812.305 262.339 812.305Z" fill="black"></path><path d="M301.788 788.508C295.781 788.505 289.686 787.856 283.992 785.859C279.6 784.319 275.503 781.949 272.2 778.645C268.897 775.342 266.526 771.245 264.987 766.854C263.513 762.652 262.785 758.218 262.488 753.786C262.411 752.621 262.367 751.454 262.347 750.287L262.338 749.057L262.328 750.287C262.308 751.454 262.265 752.621 262.187 753.786C261.89 758.218 261.162 762.652 259.689 766.854C258.149 771.245 255.778 775.342 252.475 778.645C249.172 781.949 245.075 784.319 240.683 785.859C236.481 787.332 232.048 788.061 227.616 788.357C226.451 788.435 225.284 788.479 224.116 788.498L222.887 788.508L224.116 788.518C225.284 788.538 226.451 788.581 227.616 788.659C232.048 788.956 236.481 789.684 240.683 791.157C245.075 792.697 249.172 795.068 252.475 798.371C255.778 801.674 258.149 805.771 259.689 810.163C261.162 814.364 261.89 818.798 262.187 823.23C262.265 824.395 262.308 825.562 262.328 826.729L262.338 827.959L262.347 826.729C262.367 825.562 262.411 824.395 262.488 823.23C262.785 818.798 263.513 814.364 264.987 810.163C266.526 805.771 268.897 801.674 272.2 798.371C275.503 795.068 279.6 792.697 283.992 791.157C289.686 789.161 295.781 788.511 301.788 788.508Z" fill="black"></path><path d="M235.064 490.909H289.609V436.365H235.064V490.909Z" fill="black"></path><path d="M316.478 812.305C299.718 812.305 286.131 825.892 286.131 842.652C286.131 859.412 299.718 872.999 316.478 872.999C333.238 872.999 346.824 859.412 346.824 842.652C346.824 825.892 333.238 812.305 316.478 812.305Z" fill="black"></path><path d="M355.929 734.36C349.922 734.357 343.827 733.707 338.133 731.711C333.741 730.171 329.644 727.8 326.341 724.497C323.038 721.194 320.667 717.097 319.127 712.705C317.654 708.503 316.926 704.07 316.629 699.638C316.551 698.473 316.508 697.306 316.488 696.139L316.478 694.909L316.468 696.139C316.449 697.306 316.405 698.473 316.327 699.638C316.031 704.07 315.302 708.503 313.829 712.705C312.289 717.097 309.919 721.194 306.615 724.497C303.312 727.8 299.215 730.171 294.824 731.711C290.622 733.184 286.188 733.912 281.756 734.209C280.591 734.287 279.424 734.33 278.257 734.35L277.027 734.36L278.257 734.369C279.424 734.389 280.591 734.433 281.756 734.511C286.188 734.807 290.622 735.535 294.824 737.009C299.215 738.548 303.312 740.919 306.615 744.222C309.919 747.525 312.289 751.623 313.829 756.014C315.302 760.216 316.031 764.65 316.327 769.082C316.405 770.247 316.449 771.413 316.468 772.581L316.478 773.811L316.488 772.581C316.508 771.413 316.551 770.247 316.629 769.082C316.926 764.65 317.654 760.216 319.127 756.014C320.667 751.623 323.038 747.525 326.341 744.222C329.644 740.919 333.741 738.548 338.133 737.009C343.827 735.012 349.922 734.363 355.929 734.36Z" fill="black"></path><path d="M289.209 436.764H343.753V382.219H289.209V436.764Z" fill="black"></path><path d="M370.624 812.305C353.864 812.305 340.277 825.892 340.277 842.652C340.277 859.412 353.864 872.999 370.624 872.999C387.384 872.999 400.971 859.412 400.971 842.652C400.971 825.892 387.384 812.305 370.624 812.305Z" fill="black"></path><path d="M410.083 680.217C404.076 680.214 397.981 679.565 392.287 677.568C387.895 676.028 383.798 673.657 380.495 670.354C377.192 667.051 374.821 662.954 373.281 658.563C371.808 654.361 371.08 649.927 370.783 645.495C370.705 644.33 370.662 643.163 370.642 641.996L370.632 640.766L370.623 641.996C370.603 643.163 370.56 644.33 370.482 645.495C370.185 649.927 369.457 654.361 367.984 658.563C366.444 662.954 364.073 667.051 360.77 670.354C357.467 673.657 353.37 676.028 348.978 677.568C344.776 679.041 340.343 679.77 335.911 680.066C334.746 680.144 333.579 680.188 332.411 680.207L331.182 680.217L332.411 680.227C333.579 680.247 334.746 680.29 335.911 680.368C340.343 680.665 344.776 681.393 348.978 682.866C353.37 684.406 357.467 686.777 360.77 690.08C364.073 693.383 366.444 697.48 367.984 701.872C369.457 706.073 370.185 710.507 370.482 714.939C370.56 716.104 370.603 717.271 370.623 718.438L370.632 719.668L370.642 718.438C370.662 717.271 370.705 716.104 370.783 714.939C371.08 710.507 371.808 706.073 373.281 701.872C374.821 697.48 377.192 693.383 380.495 690.08C383.798 686.777 387.895 684.406 392.287 682.866C397.981 680.87 404.076 680.22 410.083 680.217Z" fill="black"></path><path d="M397.498 869.925H452.042V815.38H397.498V869.925Z" fill="black"></path><path d="M424.773 595.724C408.013 595.724 394.426 609.311 394.426 626.071C394.426 642.831 408.013 656.418 424.773 656.418C441.533 656.418 455.119 642.831 455.119 626.071C455.119 609.311 441.533 595.724 424.773 595.724Z" fill="black"></path><path d="M464.222 571.925C458.215 571.922 452.12 571.273 446.426 569.276C442.034 567.736 437.937 565.365 434.634 562.062C431.331 558.759 428.96 554.662 427.42 550.271C425.947 546.069 425.219 541.635 424.922 537.203C424.844 536.038 424.801 534.871 424.781 533.704L424.771 532.474L424.761 533.704C424.742 534.871 424.698 536.038 424.62 537.203C424.324 541.635 423.596 546.069 422.122 550.271C420.582 554.662 418.212 558.759 414.908 562.062C411.605 565.365 407.508 567.736 403.117 569.276C398.915 570.749 394.481 571.478 390.049 571.774C388.884 571.852 387.717 571.896 386.55 571.915L385.32 571.925L386.55 571.935C387.717 571.955 388.884 571.998 390.049 572.076C394.481 572.373 398.915 573.101 403.117 574.574C407.508 576.114 411.605 578.485 414.908 581.788C418.212 585.091 420.582 589.188 422.122 593.58C423.596 597.781 424.324 602.215 424.62 606.647C424.698 607.812 424.742 608.979 424.761 610.146L424.771 611.376L424.781 610.146C424.801 608.979 424.844 607.812 424.922 606.647C425.219 602.215 425.947 597.781 427.42 593.58C428.96 589.188 431.331 585.091 434.634 581.788C437.937 578.485 442.034 576.114 446.426 574.574C452.12 572.578 458.215 571.928 464.222 571.925Z" fill="black"></path><path d="M397.498 545.052H452.042V490.507H397.498V545.052Z" fill="black"></path><path d="M424.773 433.288C408.013 433.288 394.426 446.875 394.426 463.635C394.426 480.395 408.013 493.981 424.773 493.981C441.533 493.981 455.119 480.395 455.119 463.635C455.119 446.875 441.533 433.288 424.773 433.288Z" fill="black"></path><path d="M518.368 842.652C512.361 842.649 506.266 841.999 500.572 840.003C496.18 838.463 492.083 836.092 488.78 832.789C485.477 829.486 483.106 825.389 481.567 820.997C480.093 816.795 479.365 812.362 479.069 807.93C478.991 806.765 478.947 805.598 478.927 804.431L478.918 803.201L478.908 804.431C478.888 805.598 478.845 806.765 478.767 807.93C478.47 812.362 477.742 816.795 476.269 820.997C474.729 825.389 472.358 829.486 469.055 832.789C465.752 836.092 461.655 838.463 457.263 840.003C453.061 841.476 448.628 842.204 444.196 842.501C443.031 842.579 441.864 842.622 440.696 842.642L439.467 842.652L440.696 842.661C441.864 842.681 443.031 842.725 444.196 842.803C448.628 843.099 453.061 843.827 457.263 845.301C461.655 846.84 465.752 849.211 469.055 852.514C472.358 855.817 474.729 859.915 476.269 864.306C477.742 868.508 478.47 872.941 478.767 877.374C478.845 878.539 478.888 879.705 478.908 880.873L478.918 882.103L478.927 880.873C478.947 879.705 478.991 878.539 479.069 877.374C479.365 872.941 480.093 868.508 481.567 864.306C483.106 859.915 485.477 855.817 488.78 852.514C492.083 849.211 496.18 846.84 500.572 845.301C506.266 843.304 512.361 842.655 518.368 842.652Z" fill="black"></path><path d="M547.754 748.536H602.298V693.992H547.754V748.536Z" fill="black"></path><path d="M575.028 636.773C558.268 636.773 544.682 650.36 544.682 667.12C544.682 683.88 558.268 697.467 575.028 697.467C591.788 697.467 605.375 683.88 605.375 667.12C605.375 650.36 591.788 636.773 575.028 636.773Z" fill="black"></path><path d="M614.478 612.975C608.471 612.972 602.376 612.322 596.682 610.326C592.29 608.786 588.193 606.415 584.89 603.112C581.587 599.809 579.216 595.712 577.676 591.32C576.203 587.119 575.474 582.685 575.178 578.253C575.1 577.088 575.057 575.921 575.037 574.754L575.027 573.524L575.017 574.754C574.998 575.921 574.954 577.088 574.876 578.253C574.58 582.685 573.851 587.119 572.378 591.32C570.838 595.712 568.467 599.809 565.164 603.112C561.861 606.415 557.764 608.786 553.373 610.326C549.171 611.799 544.737 612.527 540.305 612.824C539.14 612.902 537.973 612.945 536.806 612.965L535.576 612.975L536.806 612.985C537.973 613.004 539.14 613.048 540.305 613.126C544.737 613.422 549.171 614.151 553.373 615.624C557.764 617.164 561.861 619.535 565.164 622.838C568.467 626.141 570.838 630.238 572.378 634.629C573.851 638.831 574.58 643.265 574.876 647.697C574.954 648.862 574.998 650.029 575.017 651.196L575.027 652.426L575.037 651.196C575.057 650.029 575.1 648.862 575.178 647.697C575.474 643.265 576.203 638.831 577.676 634.629C579.216 630.238 581.587 626.141 584.89 622.838C588.193 619.535 592.29 617.164 596.682 615.624C602.376 613.627 608.471 612.978 614.478 612.975Z" fill="black"></path><path d="M547.754 586.102H602.298V531.557H547.754V586.102Z" fill="black"></path><path d="M629.175 907.5C612.415 907.5 598.828 921.086 598.828 937.847C598.828 954.607 612.415 968.193 629.175 968.193C645.935 968.193 659.522 954.607 659.522 937.847C659.522 921.086 645.935 907.5 629.175 907.5Z" fill="black"></path><path d="M668.624 775.411C662.617 775.409 656.522 774.759 650.828 772.763C646.436 771.223 642.339 768.852 639.036 765.549C635.733 762.246 633.362 758.149 631.822 753.757C630.349 749.555 629.621 745.122 629.324 740.69C629.246 739.525 629.203 738.358 629.183 737.19L629.173 735.961L629.164 737.19C629.144 738.358 629.101 739.525 629.023 740.69C628.726 745.122 627.998 749.555 626.525 753.757C624.985 758.149 622.614 762.246 619.311 765.549C616.008 768.852 611.911 771.223 607.519 772.763C603.317 774.236 598.884 774.964 594.452 775.261C593.287 775.338 592.12 775.382 590.952 775.402L589.723 775.411L590.952 775.421C592.12 775.441 593.287 775.484 594.452 775.562C598.884 775.859 603.317 776.587 607.519 778.06C611.911 779.6 616.008 781.971 619.311 785.274C622.614 788.577 624.985 792.674 626.525 797.066C627.998 801.268 628.726 805.701 629.023 810.133C629.101 811.298 629.144 812.465 629.164 813.633L629.173 814.862L629.183 813.633C629.203 812.465 629.246 811.298 629.324 810.133C629.621 805.701 630.349 801.268 631.822 797.066C633.362 792.674 635.733 788.577 639.036 785.274C642.339 781.971 646.436 779.6 650.828 778.06C656.522 776.064 662.617 775.414 668.624 775.411Z" fill="black"></path><path d="M656.045 965.118H710.589V910.574H656.045V965.118Z" fill="black"></path><path d="M683.318 745.065C666.557 745.065 652.971 758.652 652.971 775.412C652.971 792.172 666.557 805.759 683.318 805.759C700.078 805.759 713.664 792.172 713.664 775.412C713.664 758.652 700.078 745.065 683.318 745.065Z" fill="black"></path><path d="M722.771 504.685C716.764 504.682 710.669 504.032 704.974 502.036C700.583 500.496 696.486 498.125 693.183 494.822C689.88 491.519 687.509 487.422 685.969 483.03C684.496 478.828 683.767 474.395 683.471 469.963C683.393 468.798 683.349 467.631 683.33 466.464L683.32 465.234L683.31 466.464C683.29 467.631 683.247 468.798 683.169 469.963C682.873 474.395 682.144 478.828 680.671 483.03C679.131 487.422 676.76 491.519 673.457 494.822C670.154 498.125 666.057 500.496 661.665 502.036C657.464 503.509 653.03 504.237 648.598 504.534C647.433 504.612 646.266 504.655 645.099 504.675L643.869 504.685L645.099 504.695C646.266 504.714 647.433 504.758 648.598 504.836C653.03 505.132 657.464 505.861 661.665 507.334C666.057 508.874 670.154 511.245 673.457 514.548C676.76 517.851 679.131 521.948 680.671 526.339C682.144 530.541 682.873 534.975 683.169 539.407C683.247 540.572 683.29 541.739 683.31 542.906L683.32 544.136L683.33 542.906C683.349 541.739 683.393 540.572 683.471 539.407C683.767 534.975 684.496 530.541 685.969 526.339C687.509 521.948 689.88 517.851 693.183 514.548C696.486 511.245 700.583 508.874 704.974 507.334C710.669 505.337 716.764 504.688 722.771 504.685Z" fill="black"></path><path d="M710.188 910.976H764.732V856.431H710.188V910.976Z" fill="black"></path><path d="M737.464 690.918C720.704 690.918 707.117 704.504 707.117 721.265C707.117 738.025 720.704 751.611 737.464 751.611C754.224 751.611 767.811 738.025 767.811 721.265C767.811 704.504 754.224 690.918 737.464 690.918Z" fill="black"></path><path d="M776.909 558.829C770.902 558.826 764.807 558.177 759.113 556.181C754.721 554.641 750.624 552.27 747.321 548.967C744.018 545.664 741.647 541.567 740.108 537.175C738.634 532.973 737.906 528.54 737.61 524.108C737.532 522.943 737.488 521.776 737.468 520.608L737.459 519.379L737.449 520.608C737.429 521.776 737.386 522.943 737.308 524.108C737.011 528.54 736.283 532.973 734.81 537.175C733.27 541.567 730.899 545.664 727.596 548.967C724.293 552.27 720.196 554.641 715.804 556.181C711.602 557.654 707.169 558.382 702.737 558.679C701.572 558.756 700.405 558.8 699.237 558.82L698.008 558.829L699.237 558.839C700.405 558.859 701.572 558.902 702.737 558.98C707.169 559.277 711.602 560.005 715.804 561.478C720.196 563.018 724.293 565.389 727.596 568.692C730.899 571.995 733.27 576.092 734.81 580.484C736.283 584.686 737.011 589.119 737.308 593.551C737.386 594.716 737.429 595.883 737.449 597.051L737.459 598.28L737.468 597.051C737.488 595.883 737.532 594.716 737.61 593.551C737.906 589.119 738.634 584.686 740.108 580.484C741.647 576.092 744.018 571.995 747.321 568.692C750.624 565.389 754.721 563.018 759.113 561.478C764.807 559.482 770.902 558.832 776.909 558.829Z" fill="black"></path><path d="M764.334 856.828H818.878V802.284H764.334V856.828Z" fill="black"></path><path d="M791.612 745.065C774.852 745.065 761.266 758.652 761.266 775.412C761.266 792.172 774.852 805.759 791.612 805.759C808.373 805.759 821.959 792.172 821.959 775.412C821.959 758.652 808.373 745.065 791.612 745.065Z" fill="black"></path><path d="M831.058 721.264C825.051 721.261 818.956 720.612 813.262 718.615C808.87 717.075 804.773 714.704 801.47 711.401C798.167 708.098 795.796 704.001 794.256 699.609C792.783 695.408 792.055 690.974 791.758 686.542C791.68 685.377 791.637 684.21 791.617 683.043L791.607 681.813L791.597 683.043C791.578 684.21 791.534 685.377 791.456 686.542C791.16 690.974 790.431 695.408 788.958 699.609C787.418 704.001 785.047 708.098 781.744 711.401C778.441 714.704 774.344 717.075 769.953 718.615C765.751 720.088 761.317 720.817 756.885 721.113C755.72 721.191 754.553 721.235 753.386 721.254L752.156 721.264L753.386 721.274C754.553 721.294 755.72 721.337 756.885 721.415C761.317 721.711 765.751 722.44 769.953 723.913C774.344 725.453 778.441 727.824 781.744 731.127C785.047 734.43 787.418 738.527 788.958 742.919C790.431 747.12 791.16 751.554 791.456 755.986C791.534 757.151 791.578 758.318 791.597 759.485L791.607 760.715L791.617 759.485C791.637 758.318 791.68 757.151 791.758 755.986C792.055 751.554 792.783 747.12 794.256 742.919C795.796 738.527 798.167 734.43 801.47 731.127C804.773 727.824 808.87 725.453 813.262 723.913C818.956 721.916 825.051 721.267 831.058 721.264Z" fill="black"></path><path d="M764.334 694.394H818.878V639.849H764.334V694.394Z" fill="black"></path><path d="M791.612 582.627C774.852 582.627 761.266 596.213 761.266 612.974C761.266 629.734 774.852 643.32 791.612 643.32C808.373 643.32 821.959 629.734 821.959 612.974C821.959 596.213 808.373 582.627 791.612 582.627Z" fill="black"></path></svg>